<?xml version="1.0" standalone="no"?>
<!DOCTYPE svg PUBLIC "-//W3C//DTD SVG 20010904//EN"
 "http://www.w3.org/TR/2001/REC-SVG-20010904/DTD/svg10.dtd">
<svg version="1.0" xmlns="http://www.w3.org/2000/svg"
 width="700.000000pt" height="700.000000pt" viewBox="0 0 700.000000 700.000000"
 preserveAspectRatio="xMidYMid meet">
<metadata>
Created by potrace 1.14, written by Peter Selinger 2001-2017
</metadata>
<g transform="translate(0.000000,700.000000) scale(0.100000,-0.100000)"
fill="#000000" stroke="none">
<path d="M3278 6995 c-1 -1 -42 -5 -89 -9 -47 -4 -96 -9 -109 -11 -12 -2 -48
-7 -79 -11 -57 -6 -76 -9 -121 -19 -34 -7 -69 -14 -105 -21 -66 -12 -236 -57
-338 -90 -842 -272 -1536 -833 -1977 -1599 -47 -81 -170 -327 -170 -339 0 -3
-11 -29 -24 -58 -52 -116 -142 -389 -162 -491 -2 -10 -6 -27 -9 -37 -3 -10 -8
-29 -10 -42 -3 -13 -11 -57 -20 -98 -22 -115 -30 -160 -41 -255 -26 -230 -26
-667 1 -826 2 -13 6 -46 9 -74 9 -78 23 -156 51 -285 31 -142 109 -393 175
-555 49 -123 173 -370 235 -468 30 -49 55 -92 55 -97 0 -4 3 -10 8 -12 4 -2
33 -41 64 -88 259 -389 673 -772 1113 -1032 370 -220 847 -385 1274 -444 25
-3 57 -8 71 -10 168 -26 655 -25 850 2 89 12 104 15 124 19 12 2 37 7 56 10
193 28 458 103 693 196 485 193 959 526 1307 918 36 41 70 79 76 85 32 34 188
246 249 341 215 331 385 727 471 1098 2 9 6 27 9 40 14 60 55 299 60 352 4 33
9 71 11 85 9 46 11 524 4 605 -15 153 -21 210 -25 225 -2 8 -7 35 -10 60 -15
117 -78 375 -125 520 -208 630 -583 1183 -1090 1610 -466 391 -1097 678 -1685
766 -27 4 -57 9 -65 10 -8 2 -42 6 -76 9 -33 4 -74 9 -90 11 -32 5 -540 14
-546 9z m447 -1359 c84 -10 224 -34 263 -45 18 -5 33 -10 35 -9 5 1 98 -26
162 -47 307 -102 589 -277 826 -514 230 -231 380 -460 493 -753 41 -107 93
-287 103 -353 2 -16 8 -50 13 -75 24 -120 31 -391 16 -554 -38 -395 -186 -765
-440 -1101 -61 -80 -251 -278 -336 -349 -49 -40 -243 -172 -300 -202 -19 -11
-37 -21 -40 -24 -8 -8 -178 -86 -240 -111 -123 -48 -329 -103 -460 -123 -195
-30 -490 -26 -690 9 -889 156 -1595 864 -1745 1748 -23 140 -28 197 -29 347
-1 200 8 283 48 485 11 53 40 159 68 239 44 134 174 399 230 471 4 6 42 57 85
115 146 200 383 414 607 550 179 108 414 205 598 246 10 2 28 6 41 9 65 16
191 36 262 41 44 3 81 7 83 8 5 5 290 -2 347 -8z"/>
</g>
</svg>
