<svg xmlns="http://www.w3.org/2000/svg" viewBox="0 0 100 125">
	<path d="M32.28 61.403L50.398 76.45l-.04.034-18.078-15.08zm18.098 11.484L34.016 59.3l16.327 13.618.035-.03zM95 37.377v54.93H5V37.374l9.622-6.307V16.01h22.97l12.692-8.32 12.53 8.32h22.558v14.976L95 37.378zm-9.627 5.944l5.998-5.078-5.997-3.982v9.06zM42.566 16.01h15.318l-7.61-5.052-7.708 5.052zM17.35 45.4l16.666 13.9 16.327 13.618.036-.03 32.267-27.48V18.735H17.35V45.4zm-8.697-7.16l5.97 4.957v-8.87l-5.97 3.913zm83.62 2.81L50.433 76.48l-.034-.03-18.12-15.045-24.553-20.39v48.57h84.547V41.05zM49.797 58.433c-7.066 0-13.057-5.173-13.057-13.447 0-8.878 6.16-16.55 15.73-16.55 7.5 0 12.54 5.258 12.54 12.455 0 6.465-3.62 10.26-7.67 10.26-1.726 0-3.32-1.165-3.19-3.795h-.172c-1.508 2.543-3.492 3.794-6.077 3.794-2.498 0-4.653-2.028-4.653-5.433 0-5.343 4.224-10.212 10.215-10.212 1.85 0 3.49.388 4.61.905l-1.464 7.8c-.648 3.275-.13 4.785 1.293 4.827 2.198.045 4.655-2.887 4.655-7.887 0-6.248-3.75-10.73-10.43-10.73-7.024 0-12.928 5.56-12.928 14.306 0 7.197 4.696 11.636 11.075 11.636 2.457 0 4.74-.517 6.507-1.508l.69 1.854c-2.372 1.25-4.784 1.724-7.673 1.724zm5.3-20.343c-.43-.13-1.163-.303-2.154-.303-3.79 0-6.85 3.576-6.85 7.758 0 1.896.945 3.275 2.844 3.275 2.5 0 4.782-3.188 5.257-5.862l.904-4.87z"/>
</svg>