<svg viewBox="0 0 24 24" xmlns="http://www.w3.org/2000/svg">
  <path d="M20.447 20.452h-3.554v-5.57c0-1.327-.027-3.036-1.852-3.036-1.852 0-2.135 1.445-2.135 2.94v5.666H9.35V9h3.415v1.56h.046c.478-.9 1.638-1.85 3.37-1.85 3.602 0 4.268 2.37 4.268 5.456v6.286zM5.337 7.432c-1.144 0-2.063-.925-2.063-2.064 0-1.138.92-2.063 2.063-2.063 1.14 0 2.064.925 2.064 2.063 0 1.14-.924 2.065-2.063 2.065zm1.782 13.02H3.554V9H7.12v11.452zM22.224 0H1.77C.793 0 0 .774 0 1.73v20.54C0 23.228.792 24 1.77 24h20.452C23.2 24 24 23.227 24 22.27V1.73C24 .773 23.2 0 22.222 0h.003z"/>
</svg>