<?xml version="1.0" standalone="no"?>
<!DOCTYPE svg PUBLIC "-//W3C//DTD SVG 20010904//EN"
 "http://www.w3.org/TR/2001/REC-SVG-20010904/DTD/svg10.dtd">
<svg version="1.0" xmlns="http://www.w3.org/2000/svg"
 width="798.000000pt" height="798.000000pt" viewBox="0 0 798.000000 798.000000"
 preserveAspectRatio="xMidYMid meet">
<metadata>
Created by potrace 1.11, written by Peter Selinger 2001-2013
</metadata>
<g transform="translate(0.000000,798.000000) scale(0.100000,-0.100000)"
fill="#000000" stroke="none">
<path d="M1939 6863 c-1 -5 -3 -239 -3 -520 l-2 -513 1319 -2 1318 -3 -39 -55
c-73 -104 -527 -753 -602 -861 -78 -112 -133 -191 -205 -294 -23 -33 -64 -91
-91 -130 -27 -38 -52 -74 -56 -80 -5 -5 -40 -55 -78 -110 -38 -55 -74 -107
-80 -115 -12 -17 -333 -476 -350 -500 -6 -8 -163 -233 -350 -500 -186 -267
-373 -534 -416 -595 -496 -706 -500 -712 -540 -796 -47 -97 -54 -153 -54 -461
l0 -288 2248 0 2248 0 0 520 0 520 -1386 2 -1387 3 308 440 c170 242 313 447
319 455 6 8 274 391 595 850 322 459 589 842 595 850 6 8 83 119 172 245 149
214 200 286 307 440 23 33 66 94 95 135 29 41 80 113 112 160 33 47 76 108 95
135 254 360 261 380 263 780 1 149 0 276 -2 282 -3 10 -458 13 -2178 13 -1196
0 -2175 -3 -2175 -7z"/>
</g>
</svg>
